<mxfile host="app.diagrams.net" modified="2023-11-08T02:14:36.270Z" agent="Mozilla/5.0 (Windows NT 10.0; Win64; x64) AppleWebKit/537.36 (KHTML, like Gecko) Chrome/119.0.0.0 Safari/537.36" etag="oMBx52J4wHMLGQmJF7dV" version="22.0.8" type="device" pages="2">
  <diagram name="Страница — 1" id="VD28pfKD5jG4qrFczqsL">
    <mxGraphModel dx="1434" dy="790" grid="1" gridSize="10" guides="1" tooltips="1" connect="1" arrows="1" fold="1" page="1" pageScale="1" pageWidth="827" pageHeight="1169" math="0" shadow="0">
      <root>
        <mxCell id="0" />
        <mxCell id="1" parent="0" />
        <mxCell id="XRccz1XhaWSqZxdkwTaX-19" style="edgeStyle=orthogonalEdgeStyle;rounded=0;orthogonalLoop=1;jettySize=auto;html=1;exitX=0.5;exitY=0.5;exitDx=0;exitDy=0;exitPerimeter=0;entryX=0;entryY=0.5;entryDx=0;entryDy=0;endArrow=none;endFill=0;" parent="1" source="XRccz1XhaWSqZxdkwTaX-1" target="XRccz1XhaWSqZxdkwTaX-18" edge="1">
          <mxGeometry relative="1" as="geometry">
            <Array as="points">
              <mxPoint x="40" y="40" />
              <mxPoint x="40" y="440" />
            </Array>
          </mxGeometry>
        </mxCell>
        <mxCell id="XRccz1XhaWSqZxdkwTaX-62" style="edgeStyle=orthogonalEdgeStyle;rounded=0;orthogonalLoop=1;jettySize=auto;html=1;exitX=0.5;exitY=0.5;exitDx=0;exitDy=0;exitPerimeter=0;entryX=0.5;entryY=0;entryDx=0;entryDy=0;" parent="1" source="XRccz1XhaWSqZxdkwTaX-1" target="XRccz1XhaWSqZxdkwTaX-61" edge="1">
          <mxGeometry relative="1" as="geometry">
            <Array as="points">
              <mxPoint x="150" y="40" />
              <mxPoint x="150" y="95" />
              <mxPoint x="115" y="95" />
            </Array>
          </mxGeometry>
        </mxCell>
        <mxCell id="XRccz1XhaWSqZxdkwTaX-1" value="Пользователь" style="shape=umlActor;verticalLabelPosition=bottom;verticalAlign=top;html=1;outlineConnect=0;" parent="1" vertex="1">
          <mxGeometry x="80" y="10" width="30" height="60" as="geometry" />
        </mxCell>
        <mxCell id="XRccz1XhaWSqZxdkwTaX-42" style="edgeStyle=orthogonalEdgeStyle;rounded=0;orthogonalLoop=1;jettySize=auto;html=1;exitX=1;exitY=0.5;exitDx=0;exitDy=0;entryX=0.5;entryY=1;entryDx=0;entryDy=0;dashed=1;" parent="1" source="XRccz1XhaWSqZxdkwTaX-2" target="XRccz1XhaWSqZxdkwTaX-7" edge="1">
          <mxGeometry relative="1" as="geometry" />
        </mxCell>
        <mxCell id="XRccz1XhaWSqZxdkwTaX-45" value="Include" style="edgeLabel;html=1;align=center;verticalAlign=middle;resizable=0;points=[];" parent="XRccz1XhaWSqZxdkwTaX-42" vertex="1" connectable="0">
          <mxGeometry x="0.3032" y="-2" relative="1" as="geometry">
            <mxPoint as="offset" />
          </mxGeometry>
        </mxCell>
        <mxCell id="XRccz1XhaWSqZxdkwTaX-43" style="edgeStyle=orthogonalEdgeStyle;rounded=0;orthogonalLoop=1;jettySize=auto;html=1;exitX=0.5;exitY=0;exitDx=0;exitDy=0;entryX=0.5;entryY=1;entryDx=0;entryDy=0;dashed=1;" parent="1" source="XRccz1XhaWSqZxdkwTaX-2" target="XRccz1XhaWSqZxdkwTaX-3" edge="1">
          <mxGeometry relative="1" as="geometry" />
        </mxCell>
        <mxCell id="XRccz1XhaWSqZxdkwTaX-44" value="Include" style="edgeLabel;html=1;align=center;verticalAlign=middle;resizable=0;points=[];" parent="XRccz1XhaWSqZxdkwTaX-43" vertex="1" connectable="0">
          <mxGeometry y="-1" relative="1" as="geometry">
            <mxPoint as="offset" />
          </mxGeometry>
        </mxCell>
        <mxCell id="XRccz1XhaWSqZxdkwTaX-2" value="Зарегистрироваться" style="ellipse;whiteSpace=wrap;html=1;" parent="1" vertex="1">
          <mxGeometry x="200" y="180" width="120" height="40" as="geometry" />
        </mxCell>
        <mxCell id="XRccz1XhaWSqZxdkwTaX-12" style="edgeStyle=orthogonalEdgeStyle;rounded=0;orthogonalLoop=1;jettySize=auto;html=1;exitX=0;exitY=0.5;exitDx=0;exitDy=0;entryX=0.5;entryY=0;entryDx=0;entryDy=0;dashed=1;" parent="1" source="XRccz1XhaWSqZxdkwTaX-3" target="XRccz1XhaWSqZxdkwTaX-10" edge="1">
          <mxGeometry relative="1" as="geometry">
            <Array as="points">
              <mxPoint x="180" y="90" />
            </Array>
          </mxGeometry>
        </mxCell>
        <mxCell id="XRccz1XhaWSqZxdkwTaX-13" value="Extend" style="edgeLabel;html=1;align=center;verticalAlign=middle;resizable=0;points=[];" parent="XRccz1XhaWSqZxdkwTaX-12" vertex="1" connectable="0">
          <mxGeometry x="-0.3654" y="-2" relative="1" as="geometry">
            <mxPoint as="offset" />
          </mxGeometry>
        </mxCell>
        <mxCell id="XRccz1XhaWSqZxdkwTaX-3" value="Указать имя пользователя" style="ellipse;whiteSpace=wrap;html=1;" parent="1" vertex="1">
          <mxGeometry x="200" y="70" width="120" height="40" as="geometry" />
        </mxCell>
        <mxCell id="XRccz1XhaWSqZxdkwTaX-7" value="Указать данные для входа" style="ellipse;whiteSpace=wrap;html=1;" parent="1" vertex="1">
          <mxGeometry x="330" y="65" width="110" height="45" as="geometry" />
        </mxCell>
        <mxCell id="XRccz1XhaWSqZxdkwTaX-16" style="edgeStyle=orthogonalEdgeStyle;rounded=0;orthogonalLoop=1;jettySize=auto;html=1;exitX=0;exitY=0.5;exitDx=0;exitDy=0;entryX=0.5;entryY=1;entryDx=0;entryDy=0;dashed=1;" parent="1" source="XRccz1XhaWSqZxdkwTaX-10" target="XRccz1XhaWSqZxdkwTaX-14" edge="1">
          <mxGeometry relative="1" as="geometry" />
        </mxCell>
        <mxCell id="XRccz1XhaWSqZxdkwTaX-17" value="Extend" style="edgeLabel;html=1;align=center;verticalAlign=middle;resizable=0;points=[];" parent="XRccz1XhaWSqZxdkwTaX-16" vertex="1" connectable="0">
          <mxGeometry x="-0.1079" y="-1" relative="1" as="geometry">
            <mxPoint y="-1" as="offset" />
          </mxGeometry>
        </mxCell>
        <mxCell id="XRccz1XhaWSqZxdkwTaX-10" value="Редактирование профиля" style="ellipse;whiteSpace=wrap;html=1;" parent="1" vertex="1">
          <mxGeometry x="120" y="280" width="120" height="50" as="geometry" />
        </mxCell>
        <mxCell id="XRccz1XhaWSqZxdkwTaX-65" style="edgeStyle=orthogonalEdgeStyle;rounded=0;orthogonalLoop=1;jettySize=auto;html=1;exitX=0.5;exitY=0;exitDx=0;exitDy=0;entryX=0.5;entryY=1;entryDx=0;entryDy=0;dashed=1;" parent="1" source="XRccz1XhaWSqZxdkwTaX-14" target="XRccz1XhaWSqZxdkwTaX-61" edge="1">
          <mxGeometry relative="1" as="geometry" />
        </mxCell>
        <mxCell id="XRccz1XhaWSqZxdkwTaX-66" value="Extend" style="edgeLabel;html=1;align=center;verticalAlign=middle;resizable=0;points=[];" parent="XRccz1XhaWSqZxdkwTaX-65" vertex="1" connectable="0">
          <mxGeometry x="-0.32" y="-1" relative="1" as="geometry">
            <mxPoint as="offset" />
          </mxGeometry>
        </mxCell>
        <mxCell id="XRccz1XhaWSqZxdkwTaX-14" value="Просмотр профиля" style="ellipse;whiteSpace=wrap;html=1;" parent="1" vertex="1">
          <mxGeometry x="80" y="210" width="90" height="40" as="geometry" />
        </mxCell>
        <mxCell id="XRccz1XhaWSqZxdkwTaX-18" value="Просмотр товаров" style="ellipse;whiteSpace=wrap;html=1;" parent="1" vertex="1">
          <mxGeometry x="110" y="420" width="120" height="40" as="geometry" />
        </mxCell>
        <mxCell id="XRccz1XhaWSqZxdkwTaX-22" style="edgeStyle=orthogonalEdgeStyle;rounded=0;orthogonalLoop=1;jettySize=auto;html=1;exitX=0;exitY=0.5;exitDx=0;exitDy=0;entryX=1;entryY=0.5;entryDx=0;entryDy=0;dashed=1;" parent="1" source="XRccz1XhaWSqZxdkwTaX-20" target="XRccz1XhaWSqZxdkwTaX-18" edge="1">
          <mxGeometry relative="1" as="geometry">
            <mxPoint x="240" y="447.5" as="targetPoint" />
          </mxGeometry>
        </mxCell>
        <mxCell id="XRccz1XhaWSqZxdkwTaX-23" value="Extend" style="edgeLabel;html=1;align=center;verticalAlign=middle;resizable=0;points=[];" parent="XRccz1XhaWSqZxdkwTaX-22" vertex="1" connectable="0">
          <mxGeometry x="-0.13" y="-3" relative="1" as="geometry">
            <mxPoint x="10" y="1" as="offset" />
          </mxGeometry>
        </mxCell>
        <mxCell id="XRccz1XhaWSqZxdkwTaX-27" style="edgeStyle=orthogonalEdgeStyle;rounded=0;orthogonalLoop=1;jettySize=auto;html=1;exitX=0.5;exitY=1;exitDx=0;exitDy=0;dashed=1;" parent="1" source="XRccz1XhaWSqZxdkwTaX-20" target="XRccz1XhaWSqZxdkwTaX-24" edge="1">
          <mxGeometry relative="1" as="geometry" />
        </mxCell>
        <mxCell id="XRccz1XhaWSqZxdkwTaX-29" value="Extend" style="edgeLabel;html=1;align=center;verticalAlign=middle;resizable=0;points=[];" parent="XRccz1XhaWSqZxdkwTaX-27" vertex="1" connectable="0">
          <mxGeometry x="-0.1007" y="1" relative="1" as="geometry">
            <mxPoint as="offset" />
          </mxGeometry>
        </mxCell>
        <mxCell id="XRccz1XhaWSqZxdkwTaX-20" value="Добавить товар в корзину" style="ellipse;whiteSpace=wrap;html=1;" parent="1" vertex="1">
          <mxGeometry x="290" y="380" width="110" height="50" as="geometry" />
        </mxCell>
        <mxCell id="XRccz1XhaWSqZxdkwTaX-25" style="edgeStyle=orthogonalEdgeStyle;rounded=0;orthogonalLoop=1;jettySize=auto;html=1;exitX=0;exitY=0.5;exitDx=0;exitDy=0;entryX=1;entryY=0.5;entryDx=0;entryDy=0;dashed=1;" parent="1" source="XRccz1XhaWSqZxdkwTaX-24" target="XRccz1XhaWSqZxdkwTaX-18" edge="1">
          <mxGeometry relative="1" as="geometry">
            <mxPoint x="240" y="447.5" as="targetPoint" />
          </mxGeometry>
        </mxCell>
        <mxCell id="XRccz1XhaWSqZxdkwTaX-26" value="Include" style="edgeLabel;html=1;align=center;verticalAlign=middle;resizable=0;points=[];" parent="XRccz1XhaWSqZxdkwTaX-25" vertex="1" connectable="0">
          <mxGeometry x="-0.2426" y="-1" relative="1" as="geometry">
            <mxPoint as="offset" />
          </mxGeometry>
        </mxCell>
        <mxCell id="XRccz1XhaWSqZxdkwTaX-24" value="Просмотр товара" style="ellipse;whiteSpace=wrap;html=1;" parent="1" vertex="1">
          <mxGeometry x="295" y="480" width="100" height="40" as="geometry" />
        </mxCell>
        <mxCell id="XRccz1XhaWSqZxdkwTaX-31" style="edgeStyle=orthogonalEdgeStyle;rounded=0;orthogonalLoop=1;jettySize=auto;html=1;exitX=0;exitY=0.5;exitDx=0;exitDy=0;entryX=1;entryY=0.5;entryDx=0;entryDy=0;dashed=1;" parent="1" source="XRccz1XhaWSqZxdkwTaX-30" target="XRccz1XhaWSqZxdkwTaX-20" edge="1">
          <mxGeometry relative="1" as="geometry" />
        </mxCell>
        <mxCell id="XRccz1XhaWSqZxdkwTaX-33" value="Extend" style="edgeLabel;html=1;align=center;verticalAlign=middle;resizable=0;points=[];" parent="XRccz1XhaWSqZxdkwTaX-31" vertex="1" connectable="0">
          <mxGeometry x="-0.16" y="-2" relative="1" as="geometry">
            <mxPoint as="offset" />
          </mxGeometry>
        </mxCell>
        <mxCell id="XRccz1XhaWSqZxdkwTaX-40" style="edgeStyle=orthogonalEdgeStyle;rounded=0;orthogonalLoop=1;jettySize=auto;html=1;exitX=0.5;exitY=0;exitDx=0;exitDy=0;entryX=0.5;entryY=1;entryDx=0;entryDy=0;dashed=1;" parent="1" source="XRccz1XhaWSqZxdkwTaX-30" target="XRccz1XhaWSqZxdkwTaX-37" edge="1">
          <mxGeometry relative="1" as="geometry" />
        </mxCell>
        <mxCell id="XRccz1XhaWSqZxdkwTaX-41" value="Include" style="edgeLabel;html=1;align=center;verticalAlign=middle;resizable=0;points=[];" parent="XRccz1XhaWSqZxdkwTaX-40" vertex="1" connectable="0">
          <mxGeometry x="-0.1692" y="-2" relative="1" as="geometry">
            <mxPoint y="1" as="offset" />
          </mxGeometry>
        </mxCell>
        <mxCell id="XRccz1XhaWSqZxdkwTaX-47" style="edgeStyle=orthogonalEdgeStyle;rounded=0;orthogonalLoop=1;jettySize=auto;html=1;exitX=1;exitY=0.5;exitDx=0;exitDy=0;entryX=0;entryY=0.5;entryDx=0;entryDy=0;dashed=1;" parent="1" source="XRccz1XhaWSqZxdkwTaX-30" target="XRccz1XhaWSqZxdkwTaX-46" edge="1">
          <mxGeometry relative="1" as="geometry" />
        </mxCell>
        <mxCell id="XRccz1XhaWSqZxdkwTaX-48" value="Include" style="edgeLabel;html=1;align=center;verticalAlign=middle;resizable=0;points=[];" parent="XRccz1XhaWSqZxdkwTaX-47" vertex="1" connectable="0">
          <mxGeometry x="-0.3" y="2" relative="1" as="geometry">
            <mxPoint as="offset" />
          </mxGeometry>
        </mxCell>
        <mxCell id="XRccz1XhaWSqZxdkwTaX-30" value="Совершить заказ" style="ellipse;whiteSpace=wrap;html=1;" parent="1" vertex="1">
          <mxGeometry x="470" y="382.5" width="110" height="45" as="geometry" />
        </mxCell>
        <mxCell id="XRccz1XhaWSqZxdkwTaX-35" style="edgeStyle=orthogonalEdgeStyle;rounded=0;orthogonalLoop=1;jettySize=auto;html=1;exitX=0.5;exitY=1;exitDx=0;exitDy=0;entryX=0.5;entryY=0;entryDx=0;entryDy=0;dashed=1;" parent="1" source="XRccz1XhaWSqZxdkwTaX-34" target="XRccz1XhaWSqZxdkwTaX-20" edge="1">
          <mxGeometry relative="1" as="geometry" />
        </mxCell>
        <mxCell id="XRccz1XhaWSqZxdkwTaX-36" value="Extend" style="edgeLabel;html=1;align=center;verticalAlign=middle;resizable=0;points=[];" parent="XRccz1XhaWSqZxdkwTaX-35" vertex="1" connectable="0">
          <mxGeometry x="-0.2" y="2" relative="1" as="geometry">
            <mxPoint as="offset" />
          </mxGeometry>
        </mxCell>
        <mxCell id="XRccz1XhaWSqZxdkwTaX-34" value="Удалить товар из корзины" style="ellipse;whiteSpace=wrap;html=1;" parent="1" vertex="1">
          <mxGeometry x="300" y="290" width="90" height="50" as="geometry" />
        </mxCell>
        <mxCell id="XRccz1XhaWSqZxdkwTaX-37" value="Указать адрес доставки" style="ellipse;whiteSpace=wrap;html=1;" parent="1" vertex="1">
          <mxGeometry x="467.5" y="300" width="115" height="50" as="geometry" />
        </mxCell>
        <mxCell id="XRccz1XhaWSqZxdkwTaX-46" value="Оплатить заказ" style="ellipse;whiteSpace=wrap;html=1;" parent="1" vertex="1">
          <mxGeometry x="640" y="377.5" width="80" height="55" as="geometry" />
        </mxCell>
        <mxCell id="bo8N211U0baof1Hj4T-G-14" style="edgeStyle=orthogonalEdgeStyle;rounded=0;orthogonalLoop=1;jettySize=auto;html=1;exitX=0;exitY=0.5;exitDx=0;exitDy=0;entryX=0;entryY=0.5;entryDx=0;entryDy=0;dashed=1;" parent="1" source="XRccz1XhaWSqZxdkwTaX-49" target="XRccz1XhaWSqZxdkwTaX-61" edge="1">
          <mxGeometry relative="1" as="geometry">
            <Array as="points">
              <mxPoint x="60" y="360" />
              <mxPoint x="60" y="145" />
            </Array>
          </mxGeometry>
        </mxCell>
        <mxCell id="bo8N211U0baof1Hj4T-G-15" value="Include" style="edgeLabel;html=1;align=center;verticalAlign=middle;resizable=0;points=[];" parent="bo8N211U0baof1Hj4T-G-14" vertex="1" connectable="0">
          <mxGeometry x="-0.7509" y="3" relative="1" as="geometry">
            <mxPoint as="offset" />
          </mxGeometry>
        </mxCell>
        <mxCell id="XRccz1XhaWSqZxdkwTaX-49" value="Просмотр списка заказов" style="ellipse;whiteSpace=wrap;html=1;" parent="1" vertex="1">
          <mxGeometry x="120" y="340" width="120" height="40" as="geometry" />
        </mxCell>
        <mxCell id="XRccz1XhaWSqZxdkwTaX-53" style="edgeStyle=orthogonalEdgeStyle;rounded=0;orthogonalLoop=1;jettySize=auto;html=1;exitX=0;exitY=0.5;exitDx=0;exitDy=0;entryX=1;entryY=0.5;entryDx=0;entryDy=0;dashed=1;" parent="1" source="XRccz1XhaWSqZxdkwTaX-51" target="XRccz1XhaWSqZxdkwTaX-24" edge="1">
          <mxGeometry relative="1" as="geometry" />
        </mxCell>
        <mxCell id="XRccz1XhaWSqZxdkwTaX-54" value="Extend" style="edgeLabel;html=1;align=center;verticalAlign=middle;resizable=0;points=[];" parent="XRccz1XhaWSqZxdkwTaX-53" vertex="1" connectable="0">
          <mxGeometry x="-0.1636" y="-3" relative="1" as="geometry">
            <mxPoint as="offset" />
          </mxGeometry>
        </mxCell>
        <mxCell id="XRccz1XhaWSqZxdkwTaX-51" value="Оставить отзыв о товаре" style="ellipse;whiteSpace=wrap;html=1;" parent="1" vertex="1">
          <mxGeometry x="450" y="473.75" width="110" height="52.5" as="geometry" />
        </mxCell>
        <mxCell id="XRccz1XhaWSqZxdkwTaX-56" style="edgeStyle=orthogonalEdgeStyle;rounded=0;orthogonalLoop=1;jettySize=auto;html=1;exitX=0.5;exitY=0;exitDx=0;exitDy=0;entryX=0.5;entryY=1;entryDx=0;entryDy=0;dashed=1;" parent="1" source="XRccz1XhaWSqZxdkwTaX-55" target="XRccz1XhaWSqZxdkwTaX-24" edge="1">
          <mxGeometry relative="1" as="geometry" />
        </mxCell>
        <mxCell id="XRccz1XhaWSqZxdkwTaX-57" value="Extend" style="edgeLabel;html=1;align=center;verticalAlign=middle;resizable=0;points=[];" parent="XRccz1XhaWSqZxdkwTaX-56" vertex="1" connectable="0">
          <mxGeometry x="-0.1333" relative="1" as="geometry">
            <mxPoint as="offset" />
          </mxGeometry>
        </mxCell>
        <mxCell id="XRccz1XhaWSqZxdkwTaX-55" value="Просмотр информации о товаре" style="ellipse;whiteSpace=wrap;html=1;" parent="1" vertex="1">
          <mxGeometry x="282.5" y="550" width="125" height="60" as="geometry" />
        </mxCell>
        <mxCell id="XRccz1XhaWSqZxdkwTaX-59" style="edgeStyle=orthogonalEdgeStyle;rounded=0;orthogonalLoop=1;jettySize=auto;html=1;exitX=0;exitY=0;exitDx=0;exitDy=0;entryX=1;entryY=1;entryDx=0;entryDy=0;dashed=1;" parent="1" source="XRccz1XhaWSqZxdkwTaX-58" target="XRccz1XhaWSqZxdkwTaX-24" edge="1">
          <mxGeometry relative="1" as="geometry">
            <Array as="points">
              <mxPoint x="470" y="540" />
              <mxPoint x="380" y="540" />
            </Array>
          </mxGeometry>
        </mxCell>
        <mxCell id="XRccz1XhaWSqZxdkwTaX-60" value="Extend" style="edgeLabel;html=1;align=center;verticalAlign=middle;resizable=0;points=[];" parent="XRccz1XhaWSqZxdkwTaX-59" vertex="1" connectable="0">
          <mxGeometry x="0.246" y="-2" relative="1" as="geometry">
            <mxPoint as="offset" />
          </mxGeometry>
        </mxCell>
        <mxCell id="XRccz1XhaWSqZxdkwTaX-58" value="Просмотр отзывов о товаре" style="ellipse;whiteSpace=wrap;html=1;" parent="1" vertex="1">
          <mxGeometry x="455" y="550" width="100" height="60" as="geometry" />
        </mxCell>
        <mxCell id="XRccz1XhaWSqZxdkwTaX-61" value="Авторизоваться" style="ellipse;whiteSpace=wrap;html=1;" parent="1" vertex="1">
          <mxGeometry x="70" y="120" width="90" height="50" as="geometry" />
        </mxCell>
        <mxCell id="XRccz1XhaWSqZxdkwTaX-68" style="edgeStyle=orthogonalEdgeStyle;rounded=0;orthogonalLoop=1;jettySize=auto;html=1;exitX=0.5;exitY=0.5;exitDx=0;exitDy=0;exitPerimeter=0;entryX=0.5;entryY=1;entryDx=0;entryDy=0;endArrow=none;endFill=0;" parent="1" source="XRccz1XhaWSqZxdkwTaX-67" target="XRccz1XhaWSqZxdkwTaX-2" edge="1">
          <mxGeometry relative="1" as="geometry">
            <Array as="points">
              <mxPoint x="475" y="230" />
              <mxPoint x="260" y="230" />
            </Array>
          </mxGeometry>
        </mxCell>
        <mxCell id="bo8N211U0baof1Hj4T-G-17" style="edgeStyle=orthogonalEdgeStyle;rounded=0;orthogonalLoop=1;jettySize=auto;html=1;exitX=0.5;exitY=0.5;exitDx=0;exitDy=0;exitPerimeter=0;entryX=0;entryY=0.5;entryDx=0;entryDy=0;" parent="1" source="XRccz1XhaWSqZxdkwTaX-67" target="bo8N211U0baof1Hj4T-G-16" edge="1">
          <mxGeometry relative="1" as="geometry" />
        </mxCell>
        <mxCell id="XRccz1XhaWSqZxdkwTaX-67" value="Посетитель" style="shape=umlActor;verticalLabelPosition=bottom;verticalAlign=top;html=1;outlineConnect=0;" parent="1" vertex="1">
          <mxGeometry x="460" y="120" width="30" height="60" as="geometry" />
        </mxCell>
        <mxCell id="bo8N211U0baof1Hj4T-G-16" value="Просмотр товаров" style="ellipse;whiteSpace=wrap;html=1;" parent="1" vertex="1">
          <mxGeometry x="510" y="130" width="120" height="40" as="geometry" />
        </mxCell>
        <mxCell id="bo8N211U0baof1Hj4T-G-132" style="edgeStyle=orthogonalEdgeStyle;rounded=0;orthogonalLoop=1;jettySize=auto;html=1;exitX=0.5;exitY=0.5;exitDx=0;exitDy=0;exitPerimeter=0;entryX=0;entryY=0.5;entryDx=0;entryDy=0;endArrow=none;endFill=0;" parent="1" source="bo8N211U0baof1Hj4T-G-53" target="bo8N211U0baof1Hj4T-G-128" edge="1">
          <mxGeometry relative="1" as="geometry" />
        </mxCell>
        <mxCell id="n6Os_UrtAXvnaq0c_Lot-6" style="edgeStyle=orthogonalEdgeStyle;rounded=0;orthogonalLoop=1;jettySize=auto;html=1;exitX=0.5;exitY=0.5;exitDx=0;exitDy=0;exitPerimeter=0;entryX=1;entryY=0.5;entryDx=0;entryDy=0;endArrow=none;endFill=0;" edge="1" parent="1" source="bo8N211U0baof1Hj4T-G-53" target="n6Os_UrtAXvnaq0c_Lot-3">
          <mxGeometry relative="1" as="geometry" />
        </mxCell>
        <mxCell id="bo8N211U0baof1Hj4T-G-53" value="Администратор" style="shape=umlActor;verticalLabelPosition=bottom;verticalAlign=top;html=1;outlineConnect=0;" parent="1" vertex="1">
          <mxGeometry x="389.5" y="740" width="30" height="60" as="geometry" />
        </mxCell>
        <mxCell id="bo8N211U0baof1Hj4T-G-129" style="edgeStyle=orthogonalEdgeStyle;rounded=0;orthogonalLoop=1;jettySize=auto;html=1;exitX=0;exitY=0.5;exitDx=0;exitDy=0;entryX=1;entryY=0.5;entryDx=0;entryDy=0;dashed=1;" parent="1" source="bo8N211U0baof1Hj4T-G-77" target="bo8N211U0baof1Hj4T-G-128" edge="1">
          <mxGeometry relative="1" as="geometry" />
        </mxCell>
        <mxCell id="bo8N211U0baof1Hj4T-G-131" value="Extend" style="edgeLabel;html=1;align=center;verticalAlign=middle;resizable=0;points=[];" parent="bo8N211U0baof1Hj4T-G-129" vertex="1" connectable="0">
          <mxGeometry x="-0.2667" y="2" relative="1" as="geometry">
            <mxPoint as="offset" />
          </mxGeometry>
        </mxCell>
        <mxCell id="bo8N211U0baof1Hj4T-G-77" value="Выбор пользователя" style="ellipse;whiteSpace=wrap;html=1;" parent="1" vertex="1">
          <mxGeometry x="587" y="740" width="97.5" height="60" as="geometry" />
        </mxCell>
        <mxCell id="bo8N211U0baof1Hj4T-G-86" style="edgeStyle=orthogonalEdgeStyle;rounded=0;orthogonalLoop=1;jettySize=auto;html=1;exitX=0;exitY=0.5;exitDx=0;exitDy=0;dashed=1;" parent="1" source="bo8N211U0baof1Hj4T-G-81" target="bo8N211U0baof1Hj4T-G-77" edge="1">
          <mxGeometry relative="1" as="geometry" />
        </mxCell>
        <mxCell id="bo8N211U0baof1Hj4T-G-87" value="Extend" style="edgeLabel;html=1;align=center;verticalAlign=middle;resizable=0;points=[];" parent="bo8N211U0baof1Hj4T-G-86" vertex="1" connectable="0">
          <mxGeometry x="0.0492" y="-1" relative="1" as="geometry">
            <mxPoint as="offset" />
          </mxGeometry>
        </mxCell>
        <mxCell id="bo8N211U0baof1Hj4T-G-81" value="Редактировать пользователя" style="ellipse;whiteSpace=wrap;html=1;" parent="1" vertex="1">
          <mxGeometry x="657.75" y="810" width="103" height="60" as="geometry" />
        </mxCell>
        <mxCell id="bo8N211U0baof1Hj4T-G-109" value="" style="group" parent="1" vertex="1" connectable="0">
          <mxGeometry x="60" y="667.5" width="204.5" height="205" as="geometry" />
        </mxCell>
        <mxCell id="bo8N211U0baof1Hj4T-G-99" value="Выбор товара" style="ellipse;whiteSpace=wrap;html=1;" parent="bo8N211U0baof1Hj4T-G-109" vertex="1">
          <mxGeometry x="20" y="80" width="90" height="45" as="geometry" />
        </mxCell>
        <mxCell id="bo8N211U0baof1Hj4T-G-100" style="edgeStyle=orthogonalEdgeStyle;rounded=0;orthogonalLoop=1;jettySize=auto;html=1;exitX=0;exitY=0.5;exitDx=0;exitDy=0;entryX=0.5;entryY=0;entryDx=0;entryDy=0;dashed=1;" parent="bo8N211U0baof1Hj4T-G-109" source="bo8N211U0baof1Hj4T-G-102" target="bo8N211U0baof1Hj4T-G-99" edge="1">
          <mxGeometry relative="1" as="geometry" />
        </mxCell>
        <mxCell id="bo8N211U0baof1Hj4T-G-101" value="Extend" style="edgeLabel;html=1;align=center;verticalAlign=middle;resizable=0;points=[];" parent="bo8N211U0baof1Hj4T-G-100" vertex="1" connectable="0">
          <mxGeometry x="-0.4286" y="3" relative="1" as="geometry">
            <mxPoint as="offset" />
          </mxGeometry>
        </mxCell>
        <mxCell id="bo8N211U0baof1Hj4T-G-102" value="Удалить товар" style="ellipse;whiteSpace=wrap;html=1;" parent="bo8N211U0baof1Hj4T-G-109" vertex="1">
          <mxGeometry x="114.5" width="90" height="50" as="geometry" />
        </mxCell>
        <mxCell id="bo8N211U0baof1Hj4T-G-106" style="edgeStyle=orthogonalEdgeStyle;rounded=0;orthogonalLoop=1;jettySize=auto;html=1;exitX=0;exitY=0.5;exitDx=0;exitDy=0;dashed=1;" parent="bo8N211U0baof1Hj4T-G-109" source="bo8N211U0baof1Hj4T-G-108" target="bo8N211U0baof1Hj4T-G-99" edge="1">
          <mxGeometry relative="1" as="geometry" />
        </mxCell>
        <mxCell id="bo8N211U0baof1Hj4T-G-107" value="Extend" style="edgeLabel;html=1;align=center;verticalAlign=middle;resizable=0;points=[];" parent="bo8N211U0baof1Hj4T-G-106" vertex="1" connectable="0">
          <mxGeometry x="0.0492" y="-1" relative="1" as="geometry">
            <mxPoint as="offset" />
          </mxGeometry>
        </mxCell>
        <mxCell id="bo8N211U0baof1Hj4T-G-108" value="Редактировать товар" style="ellipse;whiteSpace=wrap;html=1;" parent="bo8N211U0baof1Hj4T-G-109" vertex="1">
          <mxGeometry x="99.5" y="145" width="103" height="60" as="geometry" />
        </mxCell>
        <mxCell id="bo8N211U0baof1Hj4T-G-167" style="edgeStyle=orthogonalEdgeStyle;rounded=0;orthogonalLoop=1;jettySize=auto;html=1;exitX=0.5;exitY=1;exitDx=0;exitDy=0;entryX=0;entryY=0.5;entryDx=0;entryDy=0;dashed=1;" parent="bo8N211U0baof1Hj4T-G-109" source="bo8N211U0baof1Hj4T-G-114" target="bo8N211U0baof1Hj4T-G-99" edge="1">
          <mxGeometry relative="1" as="geometry" />
        </mxCell>
        <mxCell id="bo8N211U0baof1Hj4T-G-168" value="Extend" style="edgeLabel;html=1;align=center;verticalAlign=middle;resizable=0;points=[];" parent="bo8N211U0baof1Hj4T-G-167" vertex="1" connectable="0">
          <mxGeometry x="-0.4174" relative="1" as="geometry">
            <mxPoint as="offset" />
          </mxGeometry>
        </mxCell>
        <mxCell id="bo8N211U0baof1Hj4T-G-114" value="Удалить комментарий к товару" style="ellipse;whiteSpace=wrap;html=1;" parent="bo8N211U0baof1Hj4T-G-109" vertex="1">
          <mxGeometry x="-55.5" y="-7.5" width="100" height="50" as="geometry" />
        </mxCell>
        <mxCell id="bo8N211U0baof1Hj4T-G-128" value="Управление пользвателями" style="ellipse;whiteSpace=wrap;html=1;" parent="1" vertex="1">
          <mxGeometry x="424.5" y="740" width="102.5" height="60" as="geometry" />
        </mxCell>
        <mxCell id="bo8N211U0baof1Hj4T-G-160" value="Посетитель" style="shape=umlActor;verticalLabelPosition=bottom;verticalAlign=top;html=1;outlineConnect=0;" parent="1" vertex="1">
          <mxGeometry x="839.25" y="25" width="30" height="60" as="geometry" />
        </mxCell>
        <mxCell id="bo8N211U0baof1Hj4T-G-162" style="edgeStyle=orthogonalEdgeStyle;rounded=0;orthogonalLoop=1;jettySize=auto;html=1;exitX=0.5;exitY=0;exitDx=0;exitDy=0;exitPerimeter=0;strokeWidth=2;endArrow=block;endFill=0;" parent="1" source="bo8N211U0baof1Hj4T-G-161" target="bo8N211U0baof1Hj4T-G-160" edge="1">
          <mxGeometry relative="1" as="geometry" />
        </mxCell>
        <mxCell id="bo8N211U0baof1Hj4T-G-161" value="Пользователь" style="shape=umlActor;verticalLabelPosition=bottom;verticalAlign=top;html=1;outlineConnect=0;" parent="1" vertex="1">
          <mxGeometry x="766.25" y="145" width="30" height="60" as="geometry" />
        </mxCell>
        <mxCell id="bo8N211U0baof1Hj4T-G-166" style="edgeStyle=orthogonalEdgeStyle;rounded=0;orthogonalLoop=1;jettySize=auto;html=1;exitX=0.5;exitY=0.5;exitDx=0;exitDy=0;exitPerimeter=0;strokeWidth=2;endArrow=block;endFill=0;" parent="1" source="bo8N211U0baof1Hj4T-G-165" target="bo8N211U0baof1Hj4T-G-161" edge="1">
          <mxGeometry relative="1" as="geometry" />
        </mxCell>
        <mxCell id="bo8N211U0baof1Hj4T-G-165" value="Администратор" style="shape=umlActor;verticalLabelPosition=bottom;verticalAlign=top;html=1;outlineConnect=0;" parent="1" vertex="1">
          <mxGeometry x="869.25" y="230" width="30" height="60" as="geometry" />
        </mxCell>
        <mxCell id="n6Os_UrtAXvnaq0c_Lot-7" style="edgeStyle=orthogonalEdgeStyle;rounded=0;orthogonalLoop=1;jettySize=auto;html=1;exitX=0;exitY=0.5;exitDx=0;exitDy=0;entryX=1;entryY=0.5;entryDx=0;entryDy=0;endArrow=none;endFill=0;startArrow=classic;startFill=1;dashed=1;" edge="1" parent="1" source="n6Os_UrtAXvnaq0c_Lot-3" target="bo8N211U0baof1Hj4T-G-99">
          <mxGeometry relative="1" as="geometry" />
        </mxCell>
        <mxCell id="n6Os_UrtAXvnaq0c_Lot-8" value="Extend" style="edgeLabel;html=1;align=center;verticalAlign=middle;resizable=0;points=[];" vertex="1" connectable="0" parent="n6Os_UrtAXvnaq0c_Lot-7">
          <mxGeometry x="0.2844" relative="1" as="geometry">
            <mxPoint as="offset" />
          </mxGeometry>
        </mxCell>
        <mxCell id="n6Os_UrtAXvnaq0c_Lot-11" style="edgeStyle=orthogonalEdgeStyle;rounded=0;orthogonalLoop=1;jettySize=auto;html=1;exitX=0.5;exitY=0;exitDx=0;exitDy=0;entryX=0.5;entryY=1;entryDx=0;entryDy=0;startArrow=classic;startFill=1;endArrow=none;endFill=0;dashed=1;" edge="1" parent="1" source="n6Os_UrtAXvnaq0c_Lot-3" target="n6Os_UrtAXvnaq0c_Lot-10">
          <mxGeometry relative="1" as="geometry" />
        </mxCell>
        <mxCell id="n6Os_UrtAXvnaq0c_Lot-12" value="Extend" style="edgeLabel;html=1;align=center;verticalAlign=middle;resizable=0;points=[];" vertex="1" connectable="0" parent="n6Os_UrtAXvnaq0c_Lot-11">
          <mxGeometry x="0.1624" y="3" relative="1" as="geometry">
            <mxPoint y="1" as="offset" />
          </mxGeometry>
        </mxCell>
        <mxCell id="n6Os_UrtAXvnaq0c_Lot-3" value="Управление товарами" style="ellipse;whiteSpace=wrap;html=1;" vertex="1" parent="1">
          <mxGeometry x="224.5" y="745" width="102.5" height="50" as="geometry" />
        </mxCell>
        <mxCell id="n6Os_UrtAXvnaq0c_Lot-10" value="Создать товар" style="ellipse;whiteSpace=wrap;html=1;" vertex="1" parent="1">
          <mxGeometry x="302" y="640" width="102.5" height="60" as="geometry" />
        </mxCell>
      </root>
    </mxGraphModel>
  </diagram>
  <diagram id="2a2NOrysCX9saD9mH9l0" name="Наследование ролей">
    <mxGraphModel dx="478" dy="267" grid="1" gridSize="10" guides="1" tooltips="1" connect="1" arrows="1" fold="1" page="1" pageScale="1" pageWidth="827" pageHeight="1169" math="0" shadow="0">
      <root>
        <mxCell id="0" />
        <mxCell id="1" parent="0" />
        <mxCell id="LqzppXmft7n8ElqmVmT5-1" value="Посетитель" style="shape=umlActor;verticalLabelPosition=bottom;verticalAlign=top;html=1;outlineConnect=0;" vertex="1" parent="1">
          <mxGeometry x="384" y="60" width="30" height="60" as="geometry" />
        </mxCell>
        <mxCell id="LqzppXmft7n8ElqmVmT5-2" value="Пользователь" style="shape=umlActor;verticalLabelPosition=bottom;verticalAlign=top;html=1;outlineConnect=0;" vertex="1" parent="1">
          <mxGeometry x="220" y="170" width="30" height="60" as="geometry" />
        </mxCell>
      </root>
    </mxGraphModel>
  </diagram>
</mxfile>
